<svg xmlns="http://www.w3.org/2000/svg" viewBox="0 0 64 64">
  <defs>
    <linearGradient id="bg" x1="0" y1="0" x2="1" y2="1">
      <stop offset="0%" stop-color="#1a73e8"/>
      <stop offset="100%" stop-color="#0d47a1"/>
    </linearGradient>
  </defs>
  <!-- Background -->
  <rect width="64" height="64" rx="14" fill="url(#bg)"/>
  <!-- Infinity/DevOps loop -->
  <path d="M16 32c0-5 3.5-9 8-9s6.5 3 8 5.5c1.5 2.5 3.5 5.5 8 5.5s8-4 8-9-3.5-9-8-9-6.5 3-8 5.5c-1.5 2.5-3.5 5.5-8 5.5s-8-4-8-9z" fill="none" stroke="#fff" stroke-width="3.5" stroke-linecap="round"/>
  <!-- Gear teeth on left loop -->
  <circle cx="20" cy="32" r="3" fill="#4fc3f7"/>
  <!-- Gear teeth on right loop -->
  <circle cx="44" cy="32" r="3" fill="#81c784"/>
  <!-- Arrow on top -->
  <path d="M30 23l3-3 3 3" fill="none" stroke="#ffb74d" stroke-width="2" stroke-linecap="round" stroke-linejoin="round"/>
  <!-- Arrow on bottom -->
  <path d="M34 41l-3 3-3-3" fill="none" stroke="#ffb74d" stroke-width="2" stroke-linecap="round" stroke-linejoin="round"/>
</svg>
